<?xml version="1.0" encoding="utf-8"?>
<!-- Generator: Adobe Illustrator 22.1.0, SVG Export Plug-In . SVG Version: 6.00 Build 0)  -->
<svg version="1.1" xmlns="http://www.w3.org/2000/svg" xmlns:xlink="http://www.w3.org/1999/xlink" x="0px" y="0px"
	 viewBox="0 0 841.9 595.3" style="enable-background:new 0 0 841.9 595.3;" xml:space="preserve">
<style type="text/css">
	.st0{fill:#ABABAB;}
	.st1{fill:url(#SVGID_1_);}
	.st2{fill:url(#SVGID_2_);}
	.st3{opacity:0.3;fill:url(#SVGID_3_);}
	.st4{opacity:0.3;fill:url(#SVGID_4_);}
	.st5{opacity:0.3;fill:url(#SVGID_5_);}
	.st6{fill:url(#SVGID_6_);}
	.st7{opacity:0.5;fill:url(#SVGID_7_);}
	.st8{opacity:0.5;fill:url(#SVGID_8_);}
	.st9{opacity:0.8;}
	.st10{opacity:0.2;fill:url(#SVGID_9_);}
	.st11{opacity:0.8;fill:url(#SVGID_10_);}
	.st12{opacity:0.2;fill:url(#SVGID_11_);}
	.st13{opacity:0.2;fill:url(#SVGID_12_);}
	.st14{opacity:0.2;fill:none;stroke:url(#SVGID_13_);stroke-width:0.3037;stroke-linecap:round;stroke-miterlimit:10;}
	.st15{opacity:0.2;fill:none;stroke:url(#SVGID_14_);stroke-width:0.3037;stroke-linecap:round;stroke-miterlimit:10;}
	.st16{opacity:0.2;fill:url(#SVGID_15_);}
	.st17{opacity:0.6;fill:url(#SVGID_16_);}
	.st18{opacity:0.3;fill:url(#SVGID_17_);}
	.st19{opacity:0.2;fill:url(#SVGID_18_);}
	.st20{opacity:0.3;fill:#010101;}
	.st21{opacity:0.7;fill:url(#SVGID_19_);}
	.st22{opacity:0.4;fill:url(#SVGID_20_);}
	.st23{opacity:0.4;fill:none;stroke:#101010;stroke-width:0.3037;stroke-miterlimit:10;}
	.st24{opacity:0.2;fill:url(#SVGID_21_);}
	.st25{opacity:0.5;fill:none;stroke:url(#SVGID_22_);stroke-width:0.1518;stroke-miterlimit:10;}
	.st26{fill:url(#SVGID_23_);}
	.st27{fill:#FFFFFF;}
	.st28{clip-path:url(#SVGID_26_);}
	.st29{fill:none;stroke:#FFFFFF;stroke-width:4;}
	.st30{fill:url(#SVGID_28_);}
	.st31{fill:url(#SVGID_29_);}
	.st32{fill:url(#SVGID_30_);}
	.st33{opacity:0.3;fill:url(#SVGID_31_);}
	.st34{opacity:0.1;fill:url(#SVGID_32_);}
	.st35{fill:url(#SVGID_33_);}
	.st36{fill:url(#SVGID_34_);}
	.st37{fill:url(#SVGID_35_);}
	.st38{opacity:0.3;}
	.st39{opacity:0.4;}
	.st40{opacity:0.6;}
	.st41{opacity:0.5;fill:url(#SVGID_36_);}
	.st42{opacity:0.7;}
	.st43{opacity:0.2;fill:none;stroke:url(#SVGID_37_);stroke-width:0.3037;stroke-linecap:round;stroke-miterlimit:10;}
	.st44{opacity:0.2;fill:url(#SVGID_38_);}
	.st45{opacity:0.5;fill:url(#SVGID_39_);}
	.st46{opacity:0.5;}
	.st47{fill:url(#SVGID_40_);}
	.st48{fill:url(#SVGID_41_);}
	.st49{opacity:0.2;fill:none;stroke:url(#SVGID_42_);stroke-width:0.3037;stroke-linecap:round;stroke-miterlimit:10;}
	.st50{opacity:0.2;fill:url(#SVGID_43_);}
	.st51{opacity:0.2;fill:url(#SVGID_44_);}
	.st52{opacity:0.2;fill:url(#SVGID_45_);}
	.st53{opacity:0.5;fill:url(#SVGID_46_);}
	.st54{opacity:0.5;fill:none;stroke:#101010;stroke-width:0.3037;stroke-miterlimit:10;}
	.st55{fill:#101010;}
	.st56{opacity:0.2;fill:url(#SVGID_47_);}
	.st57{opacity:0.2;fill:url(#SVGID_48_);}
	.st58{opacity:0.5;fill:url(#SVGID_49_);}
	.st59{fill:url(#SVGID_50_);}
	.st60{opacity:0.2;fill:url(#SVGID_51_);}
	.st61{opacity:0.5;fill:url(#SVGID_52_);}
	.st62{opacity:0.5;fill:none;stroke:url(#SVGID_53_);stroke-width:0.1518;stroke-miterlimit:10;}
	.st63{clip-path:url(#SVGID_60_);}
	.st64{clip-path:url(#SVGID_61_);}
	.st65{clip-path:url(#SVGID_62_);fill:url(#SVGID_63_);}
	.st66{clip-path:url(#SVGID_66_);fill:url(#SVGID_67_);}
	.st67{clip-path:url(#SVGID_70_);fill:url(#SVGID_71_);}
	.st68{clip-path:url(#SVGID_74_);fill:url(#SVGID_75_);}
	.st69{fill:url(#SVGID_76_);}
	.st70{clip-path:url(#SVGID_79_);}
	.st71{clip-path:url(#SVGID_87_);}
	.st72{clip-path:url(#SVGID_88_);}
	.st73{clip-path:url(#SVGID_89_);fill:url(#SVGID_90_);}
	.st74{clip-path:url(#SVGID_93_);fill:url(#SVGID_94_);}
	.st75{clip-path:url(#SVGID_97_);fill:url(#SVGID_98_);}
	.st76{clip-path:url(#SVGID_101_);fill:url(#SVGID_102_);}
</style>
<g id="Layer_3">
</g>
<g id="Layer_2">
	<g>
		<g>
			<path d="M89.1,380.2v4.9H77.2v-4.9c0-0.4-0.2-0.6-0.5-0.6H37.1c-0.4,0-0.6,0.2-0.6,0.6v13.2c0,0.4,0.2,0.6,0.6,0.6h39.5
				c3.4,0,6.3,1.2,8.8,3.6c2.4,2.4,3.7,5.4,3.7,8.8v13.2c0,3.5-1.2,6.4-3.7,8.8c-2.4,2.4-5.4,3.6-8.8,3.6H37.1
				c-3.5,0-6.4-1.2-8.8-3.6c-2.4-2.4-3.6-5.4-3.6-8.8v-4.9h11.8v4.9c0,0.4,0.2,0.6,0.6,0.6h39.5c0.4,0,0.5-0.2,0.5-0.6v-13.2
				c0-0.4-0.2-0.6-0.5-0.6H37.1c-3.5,0-6.4-1.2-8.8-3.6c-2.4-2.4-3.6-5.3-3.6-8.8v-13.2c0-3.5,1.2-6.4,3.6-8.8
				c2.4-2.4,5.3-3.6,8.8-3.6h39.5c3.4,0,6.3,1.2,8.8,3.6C87.9,373.9,89.1,376.8,89.1,380.2z"/>
			<path d="M152.7,367.8h11.8v64.4h-11.8v-26.3h-42.2v26.3H98.7v-64.4h11.8v26.3h42.2V367.8z"/>
			<path d="M187.3,367.8h39.4c3.5,0,6.4,1.2,8.9,3.6c2.4,2.4,3.7,5.3,3.7,8.8v51.9h-11.9v-21.6h-40.7v21.6h-11.8v-51.9
				c0-3.5,1.2-6.4,3.6-8.8C180.9,369,183.9,367.8,187.3,367.8z M186.7,398.7h40.7v-18.5c0-0.4-0.2-0.6-0.6-0.6h-39.4
				c-0.4,0-0.6,0.2-0.6,0.6V398.7z"/>
			<path d="M313.7,380.3v17.3c0,3.4-1.2,6.3-3.7,8.8c-2.4,2.4-5.4,3.7-8.8,3.7h-3.5l16,19v3h-12.9l-18.6-22.1h-20.8h-0.3v22.1h-11.8
				v-64.3h51.8c3.5,0,6.4,1.2,8.8,3.7C312.5,374,313.7,376.9,313.7,380.3z M261.8,398.3h39.4c0.4,0,0.6-0.2,0.6-0.6v-17.3
				c0-0.4-0.2-0.6-0.6-0.6h-39.4c-0.4,0-0.6,0.2-0.6,0.6v17.3C261.1,398.1,261.4,398.3,261.8,398.3z"/>
			<path d="M372.3,367.8h13v3.1L361,400l24.3,29.1v3.1h-13l-22-26.3h-15.2v26.3h-11.9v-64.4h11.9v26.3h15.2L372.3,367.8z"/>
			<path d="M422.1,367.8H474c3.5,0,6.4,1.2,8.9,3.6c2.4,2.4,3.7,5.3,3.7,8.8v39.5c0,3.5-1.2,6.4-3.7,8.8c-2.4,2.4-5.4,3.6-8.9,3.6
				h-51.8V367.8z M474.6,419.8v-39.5c0-0.4-0.2-0.6-0.6-0.6h-39.4c-0.4,0-0.6,0.2-0.6,0.6v39.5c0,0.4,0.2,0.6,0.6,0.6H474
				C474.4,420.4,474.6,420.2,474.6,419.8z"/>
			<path d="M496.6,432.2v-64.4h11.8v64.4H496.6z"/>
			<path d="M556.8,417.9l28.8-50.1h13.7l-37.2,64.4h-10.6l-37.2-64.4H528L556.8,417.9z"/>
			<path d="M665.2,367.8v11.8h-47.3v14.5H656v11.8h-38.1v14.5h47.3v11.8H606v-64.4H665.2z"/>
			<path d="M738.6,380.3v17.3c0,3.4-1.2,6.3-3.7,8.8c-2.4,2.4-5.4,3.7-8.8,3.7h-3.5l16,19v3h-12.9l-18.6-22.1h-20.8H686v22.1h-11.8
				v-64.3H726c3.5,0,6.4,1.2,8.8,3.7C737.3,374,738.6,376.9,738.6,380.3z M686.6,398.3H726c0.4,0,0.6-0.2,0.6-0.6v-17.3
				c0-0.4-0.2-0.6-0.6-0.6h-39.4c-0.4,0-0.6,0.2-0.6,0.6v17.3C686,398.1,686.2,398.3,686.6,398.3z"/>
			<path d="M811.9,380.2v4.9h-11.9v-4.9c0-0.4-0.2-0.6-0.5-0.6H760c-0.4,0-0.6,0.2-0.6,0.6v13.2c0,0.4,0.2,0.6,0.6,0.6h39.5
				c3.4,0,6.3,1.2,8.8,3.6c2.4,2.4,3.7,5.4,3.7,8.8v13.2c0,3.5-1.2,6.4-3.7,8.8c-2.4,2.4-5.4,3.6-8.8,3.6H760
				c-3.5,0-6.4-1.2-8.8-3.6c-2.4-2.4-3.6-5.4-3.6-8.8v-4.9h11.8v4.9c0,0.4,0.2,0.6,0.6,0.6h39.5c0.4,0,0.5-0.2,0.5-0.6v-13.2
				c0-0.4-0.2-0.6-0.5-0.6H760c-3.5,0-6.4-1.2-8.8-3.6c-2.4-2.4-3.6-5.3-3.6-8.8v-13.2c0-3.5,1.2-6.4,3.6-8.8
				c2.4-2.4,5.3-3.6,8.8-3.6h39.5c3.4,0,6.3,1.2,8.8,3.6C810.7,373.9,811.9,376.8,811.9,380.2z"/>
		</g>
		<g>
			<defs>
				<path id="SVGID_81_" d="M115.4,126.2H24.5V345h90.8c29.1,0,43.7-12.7,43.7-38.2v-42.7c0-15.8-5.2-25.7-15.5-29.6
					c10.3-4.4,15.5-15,15.5-32V164C159.1,138.8,144.5,126.2,115.4,126.2z M110.5,302.7c0,5.7-3.1,8.6-9.3,8.6H73v-59.5h28.2
					c3.4,0,5.9,0.6,7.2,1.9c1.4,1.3,2.1,3.4,2.1,6.4V302.7z M110.5,209.5c0,5.7-3.1,8.6-9.3,8.6H73v-58.1h28.2
					c6.2,0,9.3,2.9,9.3,8.6V209.5z"/>
			</defs>
			<defs>
				<rect id="SVGID_82_" x="189.3" y="126.2" width="48.9" height="218.8"/>
			</defs>
			<defs>
				<path id="SVGID_83_" d="M356.2,126.2h-44.4c-28.9,0-43.4,12.6-43.4,37.8v143.2c0,25.2,14.4,37.8,43.4,37.8h44.4
					c28.9,0,43.3-12.6,43.3-37.8v-79.8h-66.4V260h17.2v42.7c0,3.2-0.7,5.5-2.1,6.7c-1.4,1.3-3.8,1.9-7.2,1.9H327
					c-3.4,0-5.9-0.6-7.2-1.9c-1.4-1.2-2.1-3.5-2.1-6.7V168.5c0-5.7,3.1-8.6,9.3-8.6h14.1c6.2,0,9.3,2.9,9.3,8.6v28.5h49.2v-33
					C399.6,138.8,385.1,126.2,356.2,126.2z"/>
			</defs>
			<linearGradient id="SVGID_1_" gradientUnits="userSpaceOnUse" x1="91.7824" y1="341.5228" x2="91.7824" y2="125.7811">
				<stop  offset="0" style="stop-color:#376AB3"/>
				<stop  offset="1" style="stop-color:#52C7E1"/>
			</linearGradient>
			<use xlink:href="#SVGID_81_"  style="overflow:visible;fill:url(#SVGID_1_);"/>
			<linearGradient id="SVGID_2_" gradientUnits="userSpaceOnUse" x1="213.7626" y1="341.5228" x2="213.7626" y2="125.7811">
				<stop  offset="0" style="stop-color:#376AB3"/>
				<stop  offset="1" style="stop-color:#52C7E1"/>
			</linearGradient>
			<use xlink:href="#SVGID_82_"  style="overflow:visible;fill:url(#SVGID_2_);"/>
			<linearGradient id="SVGID_3_" gradientUnits="userSpaceOnUse" x1="334.0207" y1="341.5228" x2="334.0207" y2="125.7811">
				<stop  offset="0" style="stop-color:#376AB3"/>
				<stop  offset="1" style="stop-color:#52C7E1"/>
			</linearGradient>
			<use xlink:href="#SVGID_83_"  style="overflow:visible;fill:url(#SVGID_3_);"/>
			<clipPath id="SVGID_4_">
				<use xlink:href="#SVGID_81_"  style="overflow:visible;"/>
			</clipPath>
			<clipPath id="SVGID_5_" style="clip-path:url(#SVGID_4_);">
				<use xlink:href="#SVGID_82_"  style="overflow:visible;"/>
			</clipPath>
			<clipPath id="SVGID_6_" style="clip-path:url(#SVGID_5_);">
				<use xlink:href="#SVGID_83_"  style="overflow:visible;"/>
			</clipPath>
			<linearGradient id="SVGID_7_" gradientUnits="userSpaceOnUse" x1="212.0405" y1="341.5228" x2="212.0405" y2="125.7811">
				<stop  offset="0" style="stop-color:#376AB3"/>
				<stop  offset="1" style="stop-color:#52C7E1"/>
			</linearGradient>
			<rect x="-31.5" y="74.3" style="clip-path:url(#SVGID_6_);fill:url(#SVGID_7_);" width="487" height="322.5"/>
		</g>
		<g>
			<g>
				<defs>
					<path id="SVGID_91_" d="M517.7,217.7h-29.6c-3.4,0-5.9-0.6-7.2-1.9c-1.4-1.3-2.1-3.4-2.1-6.4v-38.5c0-5.7,3.1-8.6,9.3-8.6h11.7
						c6.2,0,9.3,2.9,9.3,8.6v21.7h49.2V164c0-25.2-14.4-37.8-43.3-37.8h-42c-28.9,0-43.4,12.6-43.4,37.8v49.9
						c0,25.7,13.5,38.5,40.6,38.5h30.3c3.4,0,5.8,0.6,7.2,1.9c1.4,1.3,2.1,3.4,2.1,6.4v39.6c0,5.7-3.1,8.6-9.3,8.6h-11.7
						c-6.2,0-9.3-2.9-9.3-8.6v-8.2h0v-19.3c0-3.6-2.9-6.6-6.6-6.6h-13.1c-18.1,0-27.2-5.9-29.5-19.7v32.1h0v28.2
						c0,25.5,14.6,38.2,43.7,38.2h41.6c28.9,0,43.4-12.7,43.4-38.2v-51.6c0-12.4-3.2-21.7-9.6-28
						C542.9,220.9,532.4,217.7,517.7,217.7z"/>
				</defs>
				<linearGradient id="SVGID_8_" gradientUnits="userSpaceOnUse" x1="494.3099" y1="124.8263" x2="494.3099" y2="348.1252">
					<stop  offset="0" style="stop-color:#DD1767"/>
					<stop  offset="1" style="stop-color:#7F3F98"/>
				</linearGradient>
				<use xlink:href="#SVGID_91_"  style="overflow:visible;fill:url(#SVGID_8_);"/>
				<clipPath id="SVGID_9_">
					<use xlink:href="#SVGID_91_"  style="overflow:visible;"/>
				</clipPath>
				<linearGradient id="SVGID_10_" gradientUnits="userSpaceOnUse" x1="612.2089" y1="124.8263" x2="612.2089" y2="348.1252">
					<stop  offset="0" style="stop-color:#DD1767"/>
					<stop  offset="1" style="stop-color:#7F3F98"/>
				</linearGradient>
				<rect x="368.7" y="126.2" style="clip-path:url(#SVGID_9_);fill:url(#SVGID_10_);" width="487" height="218.8"/>
			</g>
			<g>
				<defs>
					<rect id="SVGID_95_" x="587.2" y="126.2" width="48.9" height="218.8"/>
				</defs>
				<linearGradient id="SVGID_11_" gradientUnits="userSpaceOnUse" x1="611.6718" y1="124.8263" x2="611.6718" y2="348.1252">
					<stop  offset="0" style="stop-color:#DD1767"/>
					<stop  offset="1" style="stop-color:#7F3F98"/>
				</linearGradient>
				<use xlink:href="#SVGID_95_"  style="overflow:visible;fill:url(#SVGID_11_);"/>
				<clipPath id="SVGID_12_">
					<use xlink:href="#SVGID_95_"  style="overflow:visible;"/>
				</clipPath>
				<linearGradient id="SVGID_13_" gradientUnits="userSpaceOnUse" x1="612.2089" y1="124.8263" x2="612.2089" y2="348.1252">
					<stop  offset="0" style="stop-color:#DD1767"/>
					<stop  offset="1" style="stop-color:#7F3F98"/>
				</linearGradient>
				<rect x="368.7" y="126.2" style="clip-path:url(#SVGID_12_);fill:url(#SVGID_13_);" width="487" height="218.8"/>
			</g>
			<g>
				<defs>
					<path id="SVGID_99_" d="M758.9,233.5l45.6-105.4l0.9-2h-53l-21,64.3l-21-64.3H655l0.9,2l48,105.4L653.3,345h49.4
						c1.7,0,3.3-1.1,3.9-2.7l0,0c2-7.1,2.5-13.8,3.2-19.7c0.1-0.8,0.2-1.7,0.3-2.5c0,0,0,0,0-0.1c0-0.2,0-0.3,0.1-0.5
						c0,0,0-0.1,0-0.1c0-0.1,0-0.3,0-0.4c0-0.1,0-0.1,0-0.2c0-0.1,0-0.2,0-0.3c0-0.1,0-0.2,0-0.3c0-0.1,0-0.1,0-0.2
						c0-0.2,0-0.3,0-0.5c0,0,0,0,0,0c1-12.8,0.2-22.3-0.1-28.5c-0.1-1.3-0.1-2.4-0.1-3.3c0-0.1,0-0.2,0-0.3c0-2.1,0.2-3.6,0.9-4.5
						c0,0,0,0,0,0c0,0,0,0,0.1-0.1c0,0,0,0,0,0c0,0,0,0,0.1-0.1c0,0,0,0,0,0c0,0,0,0,0.1-0.1c0,0,0,0,0,0c0,0,0-0.1,0.1-0.1
						c0.1-0.1,0.2-0.2,0.3-0.2c0.5-0.3,1.2-0.4,2.1-0.4c2.9,0,7.8,1.8,13.8,6.2c1.4,1,2.8,2.1,4.2,3.4c2.4,2.1,4.9,4.5,7.4,7.3
						c9,9.6,18.9,22.7,28.4,37.9c1.7,2.7,3.3,5.1,4.7,7.2c1.4,2,3.7,3.2,6.1,3.2h33.5L758.9,233.5z"/>
				</defs>
				<linearGradient id="SVGID_14_" gradientUnits="userSpaceOnUse" x1="732.6229" y1="124.8263" x2="732.6229" y2="348.1252">
					<stop  offset="0" style="stop-color:#DD1767"/>
					<stop  offset="1" style="stop-color:#7F3F98"/>
				</linearGradient>
				<use xlink:href="#SVGID_99_"  style="overflow:visible;fill:url(#SVGID_14_);"/>
				<clipPath id="SVGID_15_">
					<use xlink:href="#SVGID_99_"  style="overflow:visible;"/>
				</clipPath>
				<linearGradient id="SVGID_16_" gradientUnits="userSpaceOnUse" x1="612.2089" y1="124.8263" x2="612.2089" y2="348.1252">
					<stop  offset="0" style="stop-color:#DD1767"/>
					<stop  offset="1" style="stop-color:#7F3F98"/>
				</linearGradient>
				<rect x="368.7" y="126.2" style="clip-path:url(#SVGID_15_);fill:url(#SVGID_16_);" width="487" height="218.8"/>
			</g>
		</g>
	</g>
</g>
</svg>
